<svg version="1.1" id="Layer_1" xmlns="http://www.w3.org/2000/svg" xmlns:xlink="http://www.w3.org/1999/xlink" x="0px" y="0px"
	 width="100%" viewBox="0 0 2000 1500" enable-background="new 0 0 2000 1500" xml:space="preserve">
<path fill="#FFFFFF" opacity="1.000000" stroke="none" 
	d="
M1234.000000,1501.000000 
	C822.666809,1501.000000 411.833588,1501.000000 1.000276,1501.000000 
	C1.000184,1001.000244 1.000184,501.000549 1.000092,1.000611 
	C667.666199,1.000407 1334.332397,1.000407 2000.998901,1.000204 
	C2000.999268,500.999390 2000.999268,1000.998779 2000.999634,1500.999023 
	C1745.500000,1501.000000 1490.000000,1501.000000 1234.000000,1501.000000 
M1718.676270,779.500000 
	C1718.676270,682.772827 1718.676270,586.045654 1718.676270,489.357300 
	C1670.485352,489.357300 1623.078857,489.357300 1575.598877,489.357300 
	C1575.598877,664.016663 1575.598877,838.350098 1575.598877,1012.645386 
	C1623.393799,1012.645386 1670.798950,1012.645386 1718.675781,1012.645386 
	C1718.675781,935.048950 1718.675781,857.774475 1718.676270,779.500000 
M1290.500000,1012.964783 
	C1316.617310,1012.964783 1342.734497,1012.964783 1368.942139,1012.964783 
	C1368.942139,838.120117 1368.942139,663.744507 1368.942139,489.273376 
	C1321.265625,489.273376 1273.855713,489.273376 1226.329590,489.273376 
	C1226.329590,663.889343 1226.329590,838.267090 1226.329590,1012.964783 
	C1247.566040,1012.964783 1268.532959,1012.964783 1290.500000,1012.964783 
M1400.810303,984.500000 
	C1400.810303,993.912048 1400.810303,1003.324097 1400.810303,1012.624878 
	C1448.929565,1012.624878 1496.318115,1012.624878 1543.599365,1012.624878 
	C1543.599365,837.941589 1543.599365,663.597595 1543.599365,489.364136 
	C1495.842651,489.364136 1448.439087,489.364136 1400.810303,489.364136 
	C1400.810303,654.294678 1400.810303,818.897339 1400.810303,984.500000 
M293.477356,483.997711 
	C279.720673,483.997711 265.964020,483.997711 252.330521,483.997711 
	C252.330521,660.969299 252.330521,837.323914 252.330521,1013.686646 
	C269.897491,1013.686646 287.152954,1013.686646 304.984009,1013.686646 
	C304.984009,1001.079834 304.984009,988.699219 304.984009,976.846130 
	C312.122467,974.428406 316.050934,977.352112 320.023743,982.586121 
	C332.000580,998.365112 347.178009,1010.327759 366.823151,1014.652649 
	C391.479706,1020.080688 416.402954,1020.088318 441.053894,1014.163757 
	C470.892670,1006.992371 488.628662,987.750061 493.812439,957.792114 
	C496.326721,943.261780 497.554993,928.341675 497.643250,913.587708 
	C498.035767,847.953979 498.042084,782.315063 497.625427,716.681580 
	C497.527527,701.259399 496.264862,685.680481 493.732025,670.474548 
	C489.432739,644.663879 475.636017,625.533020 449.800964,617.384888 
	C440.365479,614.409058 430.389435,612.671814 420.526886,611.632202 
	C403.904175,609.880066 387.244751,610.610779 370.848145,614.278442 
	C349.090027,619.145447 332.989471,632.170471 320.015625,649.718872 
	C318.878448,651.257141 316.979950,652.862244 315.214752,653.169128 
	C312.014923,653.725403 308.649048,653.326782 304.858215,653.326782 
	C304.858215,596.786255 304.858215,540.574097 304.858215,483.997711 
	C301.070068,483.997711 297.769409,483.997711 293.477356,483.997711 
M909.765503,839.500122 
	C909.765503,765.101135 909.765503,690.702148 909.765503,616.459045 
	C891.883362,616.459045 874.807800,616.459045 857.382629,616.459045 
	C857.382629,618.271790 857.382629,619.747070 857.382629,621.222351 
	C857.383240,723.875610 857.347046,826.528992 857.455078,929.182129 
	C857.463623,937.320190 858.102478,945.501953 859.081055,953.586853 
	C862.960693,985.640564 880.537292,1005.505615 911.543945,1014.251953 
	C927.415039,1018.728821 943.544373,1018.406860 959.645813,1017.894348 
	C988.985535,1016.960571 1013.535095,1005.831177 1031.568481,981.976440 
	C1036.570801,975.359375 1038.090454,974.803894 1046.797363,976.945923 
	C1046.797363,989.127258 1046.797363,1001.411255 1046.797363,1013.616089 
	C1064.611206,1013.616089 1082.028564,1013.616089 1099.536377,1013.616089 
	C1099.536377,881.067261 1099.536377,748.830933 1099.536377,616.357056 
	C1081.884155,616.357056 1064.485596,616.357056 1046.689087,616.357056 
	C1046.689087,618.541870 1046.689087,620.518188 1046.689087,622.494507 
	C1046.689087,723.314697 1046.483887,824.135864 1046.971680,924.953735 
	C1047.027100,936.427612 1042.896851,944.300720 1034.972168,951.272766 
	C1033.098999,952.920776 1031.231201,954.624573 1029.150879,955.980225 
	C999.563782,975.259766 967.370850,978.136536 933.844360,970.183044 
	C920.491943,967.015503 912.614685,957.609070 910.384277,943.951233 
	C909.771057,940.196716 909.796021,936.312988 909.790527,932.488098 
	C909.746643,901.825500 909.765686,871.162781 909.765503,839.500122 
M690.872131,965.366821 
	C689.517761,966.388000 688.192078,968.245056 686.804382,968.292725 
	C678.649292,968.572693 670.476562,968.301025 662.316650,968.497986 
	C659.287659,968.571106 658.432922,967.409241 657.918091,964.593689 
	C647.208313,906.026978 635.975830,847.552490 625.734436,788.904724 
	C618.780579,749.082947 613.189575,709.023193 606.983154,669.070801 
	C604.256836,651.520935 601.515503,633.973450 598.773560,616.377441 
	C580.348389,616.377441 562.269653,616.377441 543.884705,616.377441 
	C569.118408,748.962158 594.294312,881.243286 619.491577,1013.636597 
	C656.363342,1013.636597 692.931091,1013.636597 729.578979,1013.636597 
	C756.141907,881.085022 782.652100,748.796570 809.203796,616.300903 
	C790.456909,616.300903 772.338989,616.300903 753.640686,616.300903 
	C735.623230,732.934509 715.802795,849.166626 690.872131,965.366821 
z"/>
<path fill="#808080" opacity="1.000000" stroke="none" 
	d="
M1718.676025,780.000000 
	C1718.675781,857.774475 1718.675781,935.048950 1718.675781,1012.645386 
	C1670.798950,1012.645386 1623.393799,1012.645386 1575.598877,1012.645386 
	C1575.598877,838.350098 1575.598877,664.016663 1575.598877,489.357300 
	C1623.078857,489.357300 1670.485352,489.357300 1718.676270,489.357300 
	C1718.676270,586.045654 1718.676270,682.772827 1718.676025,780.000000 
z"/>
<path fill="#000000" opacity="1.000000" stroke="none" 
	d="
M1290.000000,1012.964783 
	C1268.532959,1012.964783 1247.566040,1012.964783 1226.329590,1012.964783 
	C1226.329590,838.267090 1226.329590,663.889343 1226.329590,489.273376 
	C1273.855713,489.273376 1321.265625,489.273376 1368.942139,489.273376 
	C1368.942139,663.744507 1368.942139,838.120117 1368.942139,1012.964783 
	C1342.734497,1012.964783 1316.617310,1012.964783 1290.000000,1012.964783 
z"/>
<path fill="#404040" opacity="1.000000" stroke="none" 
	d="
M1400.810303,984.000000 
	C1400.810303,818.897339 1400.810303,654.294678 1400.810303,489.364136 
	C1448.439087,489.364136 1495.842651,489.364136 1543.599365,489.364136 
	C1543.599365,663.597595 1543.599365,837.941589 1543.599365,1012.624878 
	C1496.318115,1012.624878 1448.929565,1012.624878 1400.810303,1012.624878 
	C1400.810303,1003.324097 1400.810303,993.912048 1400.810303,984.000000 
z"/>
<path fill="#010101" opacity="1.000000" stroke="none" 
	d="
M293.973053,483.997711 
	C297.769409,483.997711 301.070068,483.997711 304.858215,483.997711 
	C304.858215,540.574097 304.858215,596.786255 304.858215,653.326782 
	C308.649048,653.326782 312.014923,653.725403 315.214752,653.169128 
	C316.979950,652.862244 318.878448,651.257141 320.015625,649.718872 
	C332.989471,632.170471 349.090027,619.145447 370.848145,614.278442 
	C387.244751,610.610779 403.904175,609.880066 420.526886,611.632202 
	C430.389435,612.671814 440.365479,614.409058 449.800964,617.384888 
	C475.636017,625.533020 489.432739,644.663879 493.732025,670.474548 
	C496.264862,685.680481 497.527527,701.259399 497.625427,716.681580 
	C498.042084,782.315063 498.035767,847.953979 497.643250,913.587708 
	C497.554993,928.341675 496.326721,943.261780 493.812439,957.792114 
	C488.628662,987.750061 470.892670,1006.992371 441.053894,1014.163757 
	C416.402954,1020.088318 391.479706,1020.080688 366.823151,1014.652649 
	C347.178009,1010.327759 332.000580,998.365112 320.023743,982.586121 
	C316.050934,977.352112 312.122467,974.428406 304.984009,976.846130 
	C304.984009,988.699219 304.984009,1001.079834 304.984009,1013.686646 
	C287.152954,1013.686646 269.897491,1013.686646 252.330521,1013.686646 
	C252.330521,837.323914 252.330521,660.969299 252.330521,483.997711 
	C265.964020,483.997711 279.720673,483.997711 293.973053,483.997711 
M445.810364,722.760681 
	C445.261597,711.783142 444.959534,700.786438 444.106293,689.832642 
	C442.825439,673.389343 434.359558,663.077881 418.367462,658.872314 
	C397.818726,653.468323 377.074615,654.573792 356.477020,658.600830 
	C337.329193,662.344360 320.576599,670.498962 308.595215,686.692688 
	C306.034515,690.153687 304.761841,693.661743 304.769440,698.114502 
	C304.898132,773.579773 305.182709,849.048096 304.539215,924.508118 
	C304.434387,936.803040 308.929504,945.142334 317.444855,952.440186 
	C320.837891,955.348145 324.419800,958.197449 328.325226,960.320007 
	C356.104553,975.418640 385.792877,977.226929 416.034760,971.138672 
	C434.364197,967.448669 442.641327,956.943787 444.190979,938.516663 
	C445.083618,927.901611 445.818146,917.235901 445.841064,906.591309 
	C445.972260,845.632568 445.868683,784.673279 445.810364,722.760681 
z"/>
<path fill="#020202" opacity="1.000000" stroke="none" 
	d="
M909.765503,840.000122 
	C909.765686,871.162781 909.746643,901.825500 909.790527,932.488098 
	C909.796021,936.312988 909.771057,940.196716 910.384277,943.951233 
	C912.614685,957.609070 920.491943,967.015503 933.844360,970.183044 
	C967.370850,978.136536 999.563782,975.259766 1029.150879,955.980225 
	C1031.231201,954.624573 1033.098999,952.920776 1034.972168,951.272766 
	C1042.896851,944.300720 1047.027100,936.427612 1046.971680,924.953735 
	C1046.483887,824.135864 1046.689087,723.314697 1046.689087,622.494507 
	C1046.689087,620.518188 1046.689087,618.541870 1046.689087,616.357056 
	C1064.485596,616.357056 1081.884155,616.357056 1099.536377,616.357056 
	C1099.536377,748.830933 1099.536377,881.067261 1099.536377,1013.616089 
	C1082.028564,1013.616089 1064.611206,1013.616089 1046.797363,1013.616089 
	C1046.797363,1001.411255 1046.797363,989.127258 1046.797363,976.945923 
	C1038.090454,974.803894 1036.570801,975.359375 1031.568481,981.976440 
	C1013.535095,1005.831177 988.985535,1016.960571 959.645813,1017.894348 
	C943.544373,1018.406860 927.415039,1018.728821 911.543945,1014.251953 
	C880.537292,1005.505615 862.960693,985.640564 859.081055,953.586853 
	C858.102478,945.501953 857.463623,937.320190 857.455078,929.182129 
	C857.347046,826.528992 857.383240,723.875610 857.382629,621.222351 
	C857.382629,619.747070 857.382629,618.271790 857.382629,616.459045 
	C874.807800,616.459045 891.883362,616.459045 909.765503,616.459045 
	C909.765503,690.702148 909.765503,765.101135 909.765503,840.000122 
z"/>
<path fill="#010101" opacity="1.000000" stroke="none" 
	d="
M690.928101,964.928650 
	C715.802795,849.166626 735.623230,732.934509 753.640686,616.300903 
	C772.338989,616.300903 790.456909,616.300903 809.203796,616.300903 
	C782.652100,748.796570 756.141907,881.085022 729.578979,1013.636597 
	C692.931091,1013.636597 656.363342,1013.636597 619.491577,1013.636597 
	C594.294312,881.243286 569.118408,748.962158 543.884705,616.377441 
	C562.269653,616.377441 580.348389,616.377441 598.773560,616.377441 
	C601.515503,633.973450 604.256836,651.520935 606.983154,669.070801 
	C613.189575,709.023193 618.780579,749.082947 625.734436,788.904724 
	C635.975830,847.552490 647.208313,906.026978 657.918091,964.593689 
	C658.432922,967.409241 659.287659,968.571106 662.316650,968.497986 
	C670.476562,968.301025 678.649292,968.572693 686.804382,968.292725 
	C688.192078,968.245056 689.517761,966.388000 690.928101,964.928650 
z"/>
<path fill="#FFFFFF" opacity="1.000000" stroke="none" 
	d="
M445.827576,723.237427 
	C445.868683,784.673279 445.972260,845.632568 445.841064,906.591309 
	C445.818146,917.235901 445.083618,927.901611 444.190979,938.516663 
	C442.641327,956.943787 434.364197,967.448669 416.034760,971.138672 
	C385.792877,977.226929 356.104553,975.418640 328.325226,960.320007 
	C324.419800,958.197449 320.837891,955.348145 317.444855,952.440186 
	C308.929504,945.142334 304.434387,936.803040 304.539215,924.508118 
	C305.182709,849.048096 304.898132,773.579773 304.769440,698.114502 
	C304.761841,693.661743 306.034515,690.153687 308.595215,686.692688 
	C320.576599,670.498962 337.329193,662.344360 356.477020,658.600830 
	C377.074615,654.573792 397.818726,653.468323 418.367462,658.872314 
	C434.359558,663.077881 442.825439,673.389343 444.106293,689.832642 
	C444.959534,700.786438 445.261597,711.783142 445.827576,723.237427 
z"/>
</svg>